<?xml version="1.0" encoding="UTF-8" standalone="no"?>
<!DOCTYPE svg PUBLIC "-//W3C//DTD SVG 1.1//EN" "http://www.w3.org/Graphics/SVG/1.1/DTD/svg11.dtd">
<svg xmlns="http://www.w3.org/2000/svg" version="1.1" viewBox="0.00 0.00 512.00 512.00">
<path fill="#3498db" d="
  M 149.31 0.00
  L 152.00 0.00
  Q 163.15 0.95 170.97 8.78
  Q 282.41 120.23 393.84 231.68
  Q 400.47 238.31 402.74 242.10
  Q 406.17 247.85 406.30 255.71
  Q 406.49 267.19 397.98 275.73
  Q 300.27 373.75 170.37 503.62
  Q 162.91 511.09 151.67 512.00
  L 148.96 512.00
  Q 138.02 511.10 130.27 503.48
  Q 121.29 494.66 113.68 486.81
  C 105.02 477.88 103.06 464.12 109.34 453.30
  Q 111.32 449.89 118.64 442.57
  Q 211.69 349.50 305.07 256.14
  Q 305.31 255.90 305.07 255.66
  Q 210.87 161.48 114.47 65.02
  C 103.39 53.94 102.86 36.55 113.93 25.17
  Q 122.24 16.63 130.51 8.51
  Q 138.30 0.85 149.31 0.00
  Z"
/>
</svg>
