<?xml version="1.0" encoding="UTF-8" standalone="no"?>
<!DOCTYPE svg PUBLIC "-//W3C//DTD SVG 1.1//EN" "http://www.w3.org/Graphics/SVG/1.1/DTD/svg11.dtd">
<svg xmlns="http://www.w3.org/2000/svg" version="1.1" viewBox="0.00 0.00 512.00 512.00">
<path fill="#3498db" d="
  M 360.33 0.00
  L 363.01 0.00
  Q 373.88 0.89 381.57 8.42
  Q 390.18 16.85 398.06 24.89
  C 406.96 33.99 409.00 47.85 402.60 58.79
  Q 400.50 62.37 394.80 68.06
  Q 300.28 162.45 206.94 255.88
  A 0.30 0.30 0.0 0 0 206.94 256.30
  Q 301.60 351.10 393.77 443.13
  Q 400.11 449.47 402.41 453.33
  C 408.75 463.97 406.74 477.92 398.17 486.75
  Q 390.89 494.26 381.34 503.59
  Q 373.61 511.16 362.69 512.00
  L 360.00 512.00
  Q 348.90 511.06 341.29 503.46
  Q 227.78 389.97 114.27 276.49
  Q 105.73 267.95 105.65 256.25
  Q 105.58 244.81 113.94 236.43
  Q 215.07 134.97 341.10 8.86
  Q 349.04 0.91 360.33 0.00
  Z"
/>
</svg>
